<?xml version="1.0" encoding="UTF-8" standalone="no"?>
<!DOCTYPE svg PUBLIC "-//W3C//DTD SVG 20010904//EN"
              "http://www.w3.org/TR/2001/REC-SVG-20010904/DTD/svg10.dtd">

<svg xmlns="http://www.w3.org/2000/svg"
     width="8.4in" height="8.4in"
     viewBox="0 0 756 756">
  <path id="Selection"
        fill="#ffeb3b" stroke-width="0"
        d="M 114.00,126.27
           C 105.54,128.29 101.67,129.61 94.00,133.79
             75.79,143.72 63.03,164.20 63.00,185.00
             63.00,185.00 63.00,237.00 63.00,237.00
             63.00,237.00 63.00,570.00 63.00,570.00
             63.01,577.79 64.06,583.75 67.01,591.00
             75.76,612.47 97.25,629.72 121.00,630.00
             121.00,630.00 194.00,630.00 194.00,630.00
             194.00,630.00 633.00,630.00 633.00,630.00
             663.71,629.95 692.63,603.28 693.00,572.00
             693.00,572.00 693.00,456.00 693.00,456.00
             693.00,456.00 693.00,248.00 693.00,248.00
             692.99,240.16 691.57,233.14 688.22,226.00
             678.59,205.48 658.33,189.28 635.00,189.00
             635.00,189.00 562.00,189.00 562.00,189.00
             562.00,189.00 387.00,189.00 387.00,189.00
             384.91,189.00 381.94,189.12 380.00,188.40
             376.15,186.98 368.26,178.26 365.00,175.00
             365.00,175.00 330.00,140.00 330.00,140.00
             326.74,136.74 318.85,128.02 315.00,126.27
             313.06,125.88 310.09,126.00 308.00,126.27
             308.00,126.27 180.00,126.27 180.00,126.27
             180.00,126.27 114.00,126.27 114.00,126.27 Z" />
</svg>
