<?xml version="1.0" encoding="UTF-8" standalone="no"?>
<!DOCTYPE svg PUBLIC "-//W3C//DTD SVG 20010904//EN"
              "http://www.w3.org/TR/2001/REC-SVG-20010904/DTD/svg10.dtd">

<svg xmlns="http://www.w3.org/2000/svg"
     width="8.4in" height="8.4in"
     viewBox="0 0 756 756">
  <path id="Selection"
        fill="#29b6f6" stroke-width="-"
        d="M 177.00,63.12
           C 168.62,65.27 165.66,66.24 158.00,70.26
             139.27,80.08 126.03,100.76 126.00,122.00
             126.00,122.00 126.00,148.00 126.00,148.00
             126.00,148.00 126.00,203.00 126.00,203.00
             126.00,203.00 126.00,633.00 126.00,633.00
             126.05,663.71 152.72,692.63 184.00,693.00
             184.00,693.00 322.00,693.00 322.00,693.00
             322.00,693.00 570.00,693.00 570.00,693.00
             600.71,692.95 629.63,666.28 630.00,635.00
             630.00,635.00 630.00,498.00 630.00,498.00
             630.00,498.00 630.00,259.00 630.00,259.00
             630.00,256.91 630.12,253.94 629.40,252.00
             627.82,247.71 613.10,234.10 609.00,230.00
             609.00,230.00 548.00,169.00 548.00,169.00
             548.00,169.00 468.00,89.00 468.00,89.00
             468.00,89.00 451.00,72.00 451.00,72.00
             448.76,69.76 444.68,65.36 442.00,64.02
             439.57,62.81 436.65,63.01 434.00,63.12
             434.00,63.12 264.00,63.12 264.00,63.12
             264.00,63.12 208.00,63.12 208.00,63.12
             208.00,63.12 177.00,63.12 177.00,63.12 Z
           M 411.00,112.00
           C 411.00,112.00 524.00,225.00 524.00,225.00
             524.00,225.00 561.00,262.00 561.00,262.00
             561.00,262.00 581.00,283.00 581.00,283.00
             581.00,283.00 410.00,283.00 410.00,283.00
             410.00,283.00 410.00,164.00 410.00,164.00
             410.00,164.00 410.00,129.00 410.00,129.00
             410.00,129.00 411.00,112.00 411.00,112.00 Z" />
</svg>
